<svg height="511pt" viewBox="0 0 511 511.89515" width="511pt" xmlns="http://www.w3.org/2000/svg"><path d="m360.867188 511.894531c-1.800782.003907-3.554688-.566406-5.007813-1.628906l-95.832031-69.71875c-3.707032-2.800781-4.488282-8.058594-1.757813-11.820313 2.730469-3.761718 7.972657-4.644531 11.785157-1.984374l95.839843 69.714843c2.992188 2.175781 4.242188 6.03125 3.097657 9.546875-1.144532 3.515625-4.425782 5.894532-8.125 5.890625zm0 0" fill="#4482c3"/><path d="m270.679688 511.894531c-2.265626 0-4.433594-.898437-6.035157-2.5l-19.285156-19.285156c-3.234375-3.347656-3.1875-8.671875.105469-11.960937 3.292968-3.292969 8.613281-3.339844 11.960937-.105469l19.285157 19.285156c2.441406 2.441406 3.171874 6.109375 1.851562 9.300781-1.320312 3.1875-4.433594 5.265625-7.882812 5.265625zm0 0" fill="#4482c3"/><path d="m503.808594 367.851562c-2.734375.003907-5.304688-1.304687-6.910156-3.515624l-69.71875-95.914063c-2.769532-3.8125-1.925782-9.148437 1.886718-11.921875 3.8125-2.769531 9.148438-1.925781 11.921875 1.886719l69.714844 95.914062c1.886719 2.59375 2.160156 6.027344.703125 8.886719-1.453125 2.859375-4.390625 4.664062-7.597656 4.664062zm0 0" fill="#cc4b4c"/><path d="m503.808594 277.65625c-2.261719 0-4.433594-.902344-6.03125-2.5l-19.285156-19.261719c-3.234376-3.347656-3.1875-8.671875.101562-11.960937 3.292969-3.292969 8.613281-3.339844 11.964844-.105469l19.285156 19.285156c2.421875 2.445313 3.136719 6.101563 1.820312 9.277344-1.316406 3.179687-4.414062 5.253906-7.855468 5.265625zm0 0" fill="#cc4b4c"/><path d="m30.960938 39.046875c-2.257813.011719-4.425782-.875-6.035157-2.457031l-22.082031-22.128906c-3.234375-3.347657-3.1875-8.671876.101562-11.960938 3.292969-3.292969 8.617188-3.339844 11.964844-.105469l22.125 22.085938c2.441406 2.441406 3.171875 6.109375 1.851563 9.296875-1.320313 3.1875-4.433594 5.269531-7.882813 5.269531zm0 0" fill="#c03a2b"/><path d="m28.074219 269.378906c-2.261719 0-4.429688-.902344-6.03125-2.5l-18.089844-18.09375c-2.21875-2.140625-3.109375-5.3125-2.328125-8.296875s3.109375-5.3125 6.09375-6.09375 6.15625.109375 8.300781 2.328125l18.089844 18.089844c2.441406 2.4375 3.167969 6.109375 1.847656 9.296875-1.320312 3.1875-4.429687 5.269531-7.882812 5.269531zm0 0" fill="#c03a2b"/><path d="m261.292969 35.050781c-2.265625 0-4.433594-.898437-6.035157-2.5l-18.089843-18.089843c-3.234375-3.347657-3.1875-8.671876.105469-11.960938 3.289062-3.292969 8.613281-3.339844 11.960937-.105469l18.089844 18.089844c2.441406 2.441406 3.171875 6.113281 1.851562 9.300781-1.320312 3.1875-4.433593 5.265625-7.882812 5.265625zm0 0" fill="#c03a2b"/><path d="m209.835938 241.132812-18.347657 18.515626c-1.101562 2.269531-3.234375 3.867187-5.722656 4.289062-2.488281.425781-5.027344-.378906-6.820313-2.15625l-2.644531-2.644531c-3.914062-3.867188-5.472656-9.519531-4.097656-14.847657l12.546875-35.839843s18.175781 17.152343 29.265625 17.238281c-5.375 5.375-.765625 8.617188-4.179687 15.445312zm0 0" fill="#e64c3c"/><path d="m226.132812 213.570312-6.058593 6.058594-5.972657 6.058594h-.085937c-11.089844-.085938-29.265625-17.238281-29.265625-17.238281l-49.152344-49.152344c-14.511718-15.769531-33.949218-26.152344-55.125-29.4375-6.0625-6.058594-3.671875-13.738281 2.472656-19.882813l1.707032-1.621093-11.09375-11.09375c3.476562 4.355469 8.542968 7.148437 14.082031 7.765625 4.582031-.347656 8.828125-2.53125 11.773437-6.058594 8.621094-8.707031 7.59375-15.703125.085938-23.980469l9.300781 9.214844c3.667969-4.109375 8.761719-6.675781 14.25-7.167969 2.726563-.050781 5.355469 1.03125 7.253907 2.988282 3.289062 21.179687 13.667968 40.613281 29.441406 55.125l48.210937 48.296874s18.175781 19.03125 18.175781 30.125zm0 0" fill="#c03a2b"/><path d="m99.414062 98.96875c-2.945312 3.527344-7.191406 5.710938-11.773437 6.058594-5.539063-.617188-10.605469-3.410156-14.082031-7.765625l-14.078125-14.082031c-35.414063-36.691407-32.515625-56.660157-32.515625-56.660157s19.96875-2.902343 56.664062 32.511719l14.078125 14.078125c.597657.597656 1.195313 1.28125 1.792969 1.878906 7.507812 8.277344 8.535156 15.273438-.085938 23.980469zm0 0" fill="#d1d4d1"/><g fill="#e64c3c"><path d="m135.597656 159.296875-51.96875 79.957031c-1.542968 2.125-4.042968 3.335938-6.664062 3.234375-2.625-.105469-5.019532-1.507812-6.394532-3.746093l-1.703124-2.898438c-5.589844-9.417969-6.984376-20.742188-3.84375-31.234375l15.449218-74.75c21.175782 3.285156 40.613282 13.667969 55.125 29.4375zm0 0"/><path d="m239.703125 83.179688-79.957031 51.96875c-15.773438-14.511719-26.152344-33.945313-29.441406-55.125l74.753906-15.445313c10.488281-3.140625 21.8125-1.75 31.230468 3.839844l2.902344 1.707031c2.234375 1.371094 3.640625 3.769531 3.742188 6.390625.105468 2.621094-1.109375 5.121094-3.230469 6.664063zm0 0"/><path d="m260.695312 190.445312-19.117187 18.941407c-6.824219 3.414062-10.066406-1.191407-15.445313 4.183593 0-11.09375-18.175781-30.125-18.175781-30.125l.941407.855469 36.351562-13.140625c5.351562-1.378906 11.03125.179688 14.933594 4.09375l2.644531 2.648438c1.757813 1.800781 2.546875 4.332031 2.125 6.8125-.421875 2.480468-2.003906 4.609375-4.257813 5.730468zm0 0"/><path d="m234.839844 323.480469-73.984375 45.992187c-15.730469-14.53125-26.078125-33.960937-29.355469-55.125l68.695312-9.386718c10.476563-3.15625 21.796876-1.796876 31.230469 3.753906l2.816407 1.707031c2.261718 1.347656 3.695312 3.738281 3.816406 6.367187.117187 2.628907-1.089844 5.144532-3.21875 6.691407zm0 0"/></g><path d="m233.300781 453.867188-12.117187 12.117187c-9.726563.085937-25.511719-13.824219-29.265625-17.234375l-55.210938-55.210938c-14.496093-15.734374-33.902343-26.085937-55.042969-29.355468-6.144531-6.144532-3.753906-13.738282 2.390626-19.882813l1.707031-1.707031-11.007813-11.007812c3.46875 4.320312 8.492188 7.109374 13.996094 7.765624 4.59375-.363281 8.847656-2.582031 11.773438-6.144531 9.214843-9.214843 7.511718-16.640625-1.707032-25.769531l11.09375 11.007812c3.6875-4.074218 8.777344-6.605468 14.25-7.082031 2.753906-.054687 5.40625 1.027344 7.339844 2.984375 3.277344 21.164063 13.625 40.59375 29.355469 55.125l54.269531 54.273438s18.175781 19.027344 18.175781 30.121094zm0 0" fill="#c03a2b"/><path d="m100.523438 333.207031c-2.925782 3.5625-7.179688 5.78125-11.773438 6.144531-5.503906-.65625-10.527344-3.445312-13.996094-7.765624l-14.164062-14.164063c-35.414063-36.695313-32.515625-56.578125-32.515625-56.578125h.085937c1.707032-.171875 21.164063-1.277344 55.554688 31.488281l15.101562 15.105469c9.21875 9.128906 10.921875 16.554688 1.707032 25.769531zm0 0" fill="#d1d4d1"/><path d="m136.707031 393.539062-51.96875 80.042969c-1.542969 2.121094-4.042969 3.332031-6.664062 3.230469-2.625-.101562-5.019531-1.507812-6.394531-3.742188l-1.703126-2.902343c-5.550781-9.433594-6.914062-20.753907-3.757812-31.234375l15.445312-74.75c21.140626 3.269531 40.546876 13.621094 55.042969 29.355468zm0 0" fill="#e64c3c"/><path d="m217.003906 481.429688-18.347656 18.605468c-1.113281 2.261719-3.253906 3.84375-5.742188 4.25-2.492187.40625-5.023437-.414062-6.800781-2.203125l-2.644531-2.644531c-3.929688-3.859375-5.492188-9.523438-4.097656-14.847656l12.546875-35.839844c3.753906 3.410156 19.539062 17.320312 29.265625 17.234375-5.375 5.378906-.765625 8.707031-4.179688 15.445313zm0 0" fill="#e64c3c"/><path d="m267.863281 430.828125-19.113281 18.859375c-6.828125 3.414062-10.070312-1.195312-15.449219 4.179688 0-11.09375-18.175781-30.121094-18.175781-30.121094l.941406.851562 36.351563-13.054687c5.335937-1.363281 10.996093.15625 14.933593 4.011719l2.644532 2.644531c1.757812 1.816406 2.546875 4.359375 2.125 6.855469-.421875 2.492187-2 4.636718-4.257813 5.773437zm0 0" fill="#e64c3c"/><path d="m450.132812 247.191406-18.34375 18.515625c-1.121093 2.257813-3.25 3.839844-5.730468 4.261719-2.480469.421875-5.015625-.367188-6.816406-2.125l-2.644532-2.648438c-3.914062-3.898437-5.472656-9.582031-4.09375-14.933593l12.542969-35.753907s18.175781 17.066407 29.269531 17.238282c-5.292968 5.375-.769531 8.617187-4.183594 15.445312zm0 0" fill="#e64c3c"/><path d="m466.433594 219.628906-12.117188 12.117188c-11.09375-.171875-29.269531-17.238282-29.269531-17.238282l-.851563-.9375-54.273437-54.273437c-14.511719-15.769531-33.949219-26.152344-55.125-29.4375-6.058594-6.058594-3.753906-13.738281 2.472656-19.882813l1.621094-1.621093-22.101563-22.101563 11.09375 11.007813c3.457032 4.335937 8.488282 7.125 13.996094 7.765625 4.585938-.328125 8.84375-2.519532 11.777344-6.058594 8.703125-8.707031 7.679688-15.703125.167969-23.980469l9.21875 9.214844c3.664062-4.109375 8.761719-6.675781 14.25-7.167969 2.75-.050781 5.402343 1.027344 7.335937 2.988282 3.277344 21.164062 13.625 40.59375 29.355469 55.125l54.527344 54.527343c.269531.183594.503906.414063.683593.683594 3.585938 3.925781 17.324219 19.625 17.238282 29.269531zm0 0" fill="#c03a2b"/><path d="m333.65625 98.96875c-2.933594 3.539062-7.191406 5.730469-11.777344 6.058594-5.507812-.640625-10.539062-3.429688-13.996094-7.765625l-11.09375-11.007813-4.007812-4.097656c-32.769531-34.390625-31.660156-53.84375-31.488281-55.550781v-.085938s19.882812-2.902343 56.574219 32.511719l15.957031 15.957031c7.511719 8.277344 8.535156 15.273438-.167969 23.980469zm0 0" fill="#d1d4d1"/><path d="m369.921875 159.296875-45.996094 73.898437c-1.53125 2.144532-4.035156 3.371094-6.664062 3.265626-2.632813-.101563-5.03125-1.519532-6.390625-3.777344l-1.707032-2.816406c-5.558593-9.460938-6.917968-20.808594-3.753906-31.316407l9.386719-68.691406c21.175781 3.285156 40.613281 13.667969 55.125 29.4375zm0 0" fill="#e64c3c"/><path d="m474.027344 83.179688-80.042969 51.96875c-15.730469-14.53125-26.078125-33.960938-29.355469-55.125l74.753906-15.445313c10.492188-3.132813 21.8125-1.738281 31.230469 3.839844l2.902344 1.707031c2.238281 1.371094 3.640625 3.769531 3.742187 6.390625.105469 2.621094-1.109374 5.121094-3.230468 6.664063zm0 0" fill="#e64c3c"/><path d="m500.992188 196.503906-19.113282 18.859375c-6.742187 3.496094-10.070312-1.109375-15.445312 4.265625.085937-9.644531-13.652344-25.34375-17.238282-29.269531l36.4375-13.140625c5.324219-1.375 10.980469.183594 14.847657 4.09375l2.644531 2.648438c1.777344 1.789062 2.582031 4.332031 2.15625 6.816406-.421875 2.488281-2.019531 4.621094-4.289062 5.726562zm0 0" fill="#e64c3c"/><path d="m503.808594 511.894531c-2.261719 0-4.433594-.898437-6.03125-2.5l-238.933594-238.933593c-3.234375-3.347657-3.1875-8.671876.101562-11.960938 3.292969-3.292969 8.617188-3.339844 11.964844-.105469l238.933594 238.933594c2.4375 2.441406 3.167969 6.109375 1.847656 9.300781-1.320312 3.1875-4.429687 5.265625-7.882812 5.265625zm0 0" fill="#d1d4d1"/><path d="m444.074219 511.894531c-2.261719 0-4.429688-.898437-6.03125-2.5l-153.601563-153.601562c-3.230468-3.347657-3.1875-8.667969.105469-11.960938 3.292969-3.289062 8.613281-3.335937 11.960937-.101562l153.601563 153.597656c2.441406 2.441406 3.167969 6.109375 1.847656 9.300781-1.320312 3.1875-4.429687 5.265625-7.882812 5.265625zm0 0" fill="#d1d4d1"/><path d="m503.808594 452.160156c-2.261719 0-4.433594-.898437-6.03125-2.5l-153.601563-153.597656c-3.234375-3.347656-3.1875-8.671875.105469-11.964844 3.289062-3.289062 8.613281-3.335937 11.960938-.101562l153.601562 153.597656c2.4375 2.441406 3.167969 6.113281 1.847656 9.300781-1.320312 3.1875-4.429687 5.265625-7.882812 5.265625zm0 0" fill="#d1d4d1"/></svg>