<svg xmlns="http://www.w3.org/2000/svg" viewBox="0 0 278.82 28.56"><defs><style>.cls-1{fill:#382c2e;}</style></defs><title>Asset 1</title><g id="Layer_2" data-name="Layer 2"><g id="Ebene_1" data-name="Ebene 1"><path class="cls-1" d="M.38,0H278.44a.38.38,0,0,1,.38.38.38.38,0,0,1-.38.39H.38A.38.38,0,0,1,0,.38.38.38,0,0,1,.38,0Z"/><path class="cls-1" d="M77.71,5.61a.68.68,0,0,0,.52-.22c.86-2.59,4.5-3.52,7.58-3.2A38.69,38.69,0,0,1,97.1,5.34,9.29,9.29,0,0,0,92,12.26c-.33,3.11,1.54,6,6,6.47,2.54.27,4.93-.72,5.18-3,.09-.85-.23-1.55-1-1.63,0,0-.66-.07-.75.78-.26,2.5-1.65,3.44-3.15,3.28-3.15-.33-4.57-3.05-4.26-6a8.8,8.8,0,0,1,4-6.38c2.11.92,4.12,1.85,6.09,2.67-.5,3.41,7.09,5.3,15,.92l.19-.08A40.64,40.64,0,0,0,124.58,6a3.67,3.67,0,0,1,.09.43,2,2,0,0,1-1.93,2.3c-.53.06-.62-.11-1-.07s-.34.23-.31.48a1.07,1.07,0,0,0,1.23.86,2.89,2.89,0,0,0,2.76-3.31,4.13,4.13,0,0,0-.28-1.07c3.53-2.43,7.07-4.72,11.48-4.25a6,6,0,0,1,2.13.62l-.08.06h0a4,4,0,0,0-1.27,3,5.22,5.22,0,0,0,1.34,3.41h0l.16.17a6,6,0,0,1-4,1,4.84,4.84,0,0,1-3.95-2.11,2,2,0,0,1,.21-2.42c.71-.67,1.54-.35,2.3,0,.51.23,1.62-.09,1.13-.85C134.37,4,133,4,132.67,4a3.52,3.52,0,0,0-2,.88,2.45,2.45,0,0,0-.36,3,5,5,0,0,0,4.23,2.65,7,7,0,0,0,4.8-1.48l0,0h0a7,7,0,0,0,4.76,1.45,5,5,0,0,0,4.23-2.65,2.43,2.43,0,0,0-.36-3,3.52,3.52,0,0,0-2-.88c-.37,0-1.71,0-1.91.27-.5.76.61,1.08,1.12.85.77-.35,1.59-.67,2.3,0a2,2,0,0,1,.21,2.42,4.83,4.83,0,0,1-3.94,2.11,5.93,5.93,0,0,1-4-1,5.26,5.26,0,0,0,1.5-3.57,4,4,0,0,0-.53-2,.24.24,0,0,0,0-.08,3.54,3.54,0,0,0-.75-1,5.85,5.85,0,0,1,2.12-.62c4.37-.46,7.88,1.78,11.38,4.18a4.43,4.43,0,0,0-.32,1.14A2.89,2.89,0,0,0,156,10a1.07,1.07,0,0,0,1.23-.86c0-.25-.06-.45-.31-.48s-.45.13-1,.07A2,2,0,0,1,154,6.47a2.15,2.15,0,0,1,.12-.5,41.68,41.68,0,0,0,5.34,3.29c.09,0,.19.07.28.12,7.9,4.33,15.46,2.44,14.94-1,2-.81,4-1.75,6.07-2.66a8.77,8.77,0,0,1,4,6.38c.32,3-1.11,5.68-4.26,6-1.5.16-2.88-.78-3.15-3.28-.09-.85-.74-.78-.74-.78-.77.08-1.09.78-1,1.63.25,2.3,2.65,3.29,5.19,3,4.49-.48,6.37-3.36,6-6.47a9.3,9.3,0,0,0-5.12-6.92A38.61,38.61,0,0,1,193,2.19c3.07-.32,6.71.61,7.57,3.2a.69.69,0,0,0,.53.22,1.75,1.75,0,0,0,1.42-2c-.17-1.57-2.3-3.41-8.88-2.71a41.4,41.4,0,0,0-12.76,4,15.77,15.77,0,0,0-8-1.09c-4,.43-7.73,2.3-9.21,6A11.84,11.84,0,0,1,160.84,9a63.25,63.25,0,0,1-6.39-3.75,2.14,2.14,0,0,1,.2-.32,21.86,21.86,0,0,0,5.65,1.66c3.54.44,5.79-.79,5.95-2.08.13-1-1-2.08-3.87-2.44-3.78-.47-6.42.63-7.85,2.15-1.44-.55-4.08-1.68-6.9-2.52a13.11,13.11,0,0,0-5.85-.83,6.09,6.09,0,0,0-2.37.72A6,6,0,0,0,137,.83a12.81,12.81,0,0,0-5.26.62,79,79,0,0,0-7.62,2.73c-1.44-1.52-4.07-2.62-7.85-2.15-2.85.36-4,1.42-3.88,2.44.16,1.29,2.42,2.52,6,2.08A22,22,0,0,0,124,4.89a2.55,2.55,0,0,1,.24.39A63.08,63.08,0,0,1,118,9a11.84,11.84,0,0,1-2.81.86c-1.48-3.69-5.17-5.56-9.2-6a15.81,15.81,0,0,0-8,1.09,41.4,41.4,0,0,0-12.76-4c-6.57-.7-8.71,1.14-8.88,2.71A1.77,1.77,0,0,0,77.71,5.61Zm95.54-1.35A11.81,11.81,0,0,1,180,5.32c-4.44,2.11-8.66,4.15-12.65,4.58a13,13,0,0,1-2.06.06C166.6,6.44,169.79,4.62,173.25,4.26ZM162,2.4c1.88.23,2.7,1,2.6,1.8-.12,1-1.76,1.94-4.58,1.59a23.26,23.26,0,0,1-5-1.39C156.29,3,158.65,2,162,2.4Zm-7.86,2.25a1.84,1.84,0,0,0-.17.25c-.67-.41-1.35-.82-2-1.21ZM139.41,2.43l.2.16v0a3.15,3.15,0,0,1,1.22,2.58,3.37,3.37,0,0,1-1.42,2.93A4,4,0,0,1,138,5a3,3,0,0,1,1-2.23A3.42,3.42,0,0,1,139.41,2.43ZM118.69,5.79c-2.83.35-4.46-.59-4.59-1.59-.09-.78.72-1.57,2.6-1.8,3.34-.42,5.69.61,6.94,2A23.17,23.17,0,0,1,118.69,5.79Zm8.61-2.32c-.85.47-1.69,1-2.52,1.49-.07-.1-.13-.21-.21-.31C125.21,4.36,126.18,3.93,127.3,3.47Zm-21.73.79c3.46.36,6.65,2.18,8,5.7a12.84,12.84,0,0,1-2-.06c-4-.43-8.22-2.47-12.66-4.58A11.81,11.81,0,0,1,105.57,4.26Z"/><path class="cls-1" d="M139.41,9c-2.44,3.14-10.93,8-14.4,5.76-1.21-.79-.51-2.63,1.78-2.18a13.47,13.47,0,0,0,8.31-.92A22.85,22.85,0,0,0,139.41,9Z"/><path class="cls-1" d="M139.41,9c2.44,3.14,10.93,8,14.4,5.76,1.22-.79.51-2.63-1.78-2.18a13.44,13.44,0,0,1-8.3-.92A22.73,22.73,0,0,1,139.41,9Z"/><path class="cls-1" d="M139.16,28.56a3.08,3.08,0,0,0,2.91-3.23c0-1.78-2.91-11.83-2.91-11.83s-2.9,10.05-2.9,11.83A3.08,3.08,0,0,0,139.16,28.56ZM130.51,25a3.07,3.07,0,0,0,4.18-1.18c.95-1.5,3.86-11.55,3.86-11.55s-7.82,7-8.77,8.46A3.07,3.07,0,0,0,130.51,25Zm17.3,0a3.07,3.07,0,0,0,.74-4.27c-1-1.51-8.77-8.46-8.77-8.46s2.9,10.05,3.85,11.55A3.08,3.08,0,0,0,147.81,25Z"/></g></g></svg>