<svg xmlns="http://www.w3.org/2000/svg" viewBox="0 0 52.95 7.54"><defs><style>.cls-1{fill:#382c2e;}</style></defs><title>Asset 4</title><g id="Layer_2" data-name="Layer 2"><g id="Ebene_1" data-name="Ebene 1"><path class="cls-1" d="M52.17,3a.76.76,0,0,0-.73.53,35.35,35.35,0,0,1-4.58-1.3,33.18,33.18,0,0,1-5-2.22l-3,3H36.3c-.22-1.3-1-2.27-1.93-2.27s-1.71,1-1.93,2.27H3a1.61,1.61,0,1,0,0,1.5h29.4c.22,1.31,1,2.27,1.93,2.27s1.71-1,1.93-2.27h2.57l3,3a33.18,33.18,0,0,1,5-2.22A35.35,35.35,0,0,1,51.44,4a.76.76,0,0,0,.73.53.78.78,0,1,0,0-1.56Z"/></g></g></svg>