<svg xmlns="http://www.w3.org/2000/svg" viewBox="0 0 52.95 7.54"><defs><style>.cls-1{fill:#382c2e;}</style></defs><title>Asset 3</title><g id="Layer_2" data-name="Layer 2"><g id="Ebene_1" data-name="Ebene 1"><path class="cls-1" d="M.78,3a.78.78,0,0,1,.74.53A35.81,35.81,0,0,0,6.1,2.22a33,33,0,0,0,5-2.22l3,3h2.56c.22-1.3,1-2.27,1.93-2.27s1.71,1,1.94,2.27h29.4a1.61,1.61,0,1,1,0,1.5H20.52c-.23,1.31-1,2.27-1.94,2.27s-1.71-1-1.93-2.27H14.09l-3,3a33,33,0,0,0-5-2.22A35.81,35.81,0,0,0,1.52,4,.78.78,0,1,1,.78,3Z"/></g></g></svg>