<svg xmlns="http://www.w3.org/2000/svg" viewBox="0 0 278.82 28.56"><defs><style>.cls-1{fill:#382c2e;}</style></defs><title>Asset 2</title><g id="Layer_2" data-name="Layer 2"><g id="Ebene_1" data-name="Ebene 1"><path class="cls-1" d="M.38,28.56H278.44a.38.38,0,0,0,.38-.38.39.39,0,0,0-.38-.39H.38a.39.39,0,0,0-.38.39.38.38,0,0,0,.38.38Z"/><path class="cls-1" d="M201.12,23a.69.69,0,0,0-.53.22c-.86,2.59-4.5,3.52-7.57,3.2a38.91,38.91,0,0,1-11.29-3.14,9.33,9.33,0,0,0,5.12-6.93c.34-3.11-1.54-6-6-6.47-2.54-.27-4.94.72-5.19,3-.09.85.23,1.55,1,1.63,0,0,.65.07.74-.78.27-2.5,1.65-3.44,3.15-3.28,3.15.33,4.57,3.05,4.26,6a8.75,8.75,0,0,1-4,6.38c-2.11-.91-4.11-1.85-6.09-2.67.5-3.41-7.09-5.3-15-.92l-.19.08a40.64,40.64,0,0,0-5.23,3.22,3.67,3.67,0,0,1-.09-.43,2,2,0,0,1,1.94-2.3c.53-.06.61.11,1,.07s.34-.23.31-.48a1.07,1.07,0,0,0-1.23-.86,2.89,2.89,0,0,0-2.76,3.32,3.81,3.81,0,0,0,.29,1.06c-3.54,2.43-7.07,4.72-11.49,4.25a6.06,6.06,0,0,1-2.12-.61.46.46,0,0,0,.07-.07h0a4.07,4.07,0,0,0,1.28-3,5.27,5.27,0,0,0-1.34-3.41h0c0-.06-.1-.11-.15-.17a5.94,5.94,0,0,1,4-1A4.83,4.83,0,0,1,147.88,21a2,2,0,0,1-.21,2.42c-.71.67-1.53.35-2.3,0-.51-.23-1.62.09-1.12.85.2.32,1.54.32,1.91.27a3.52,3.52,0,0,0,2-.88,2.42,2.42,0,0,0,.36-3A5,5,0,0,0,144.25,18a6.94,6.94,0,0,0-4.79,1.48l0,0h0A7,7,0,0,0,134.66,18a5,5,0,0,0-4.23,2.66,2.43,2.43,0,0,0,.36,3,3.52,3.52,0,0,0,2,.88c.37.05,1.7.05,1.91-.27.49-.76-.62-1.08-1.13-.85-.76.35-1.59.67-2.3,0A2,2,0,0,1,131,21,4.84,4.84,0,0,1,135,18.89a6,6,0,0,1,4,1,5.23,5.23,0,0,0-1.51,3.58,4.26,4.26,0,0,0,.53,2,.64.64,0,0,1,0,.07,3.58,3.58,0,0,0,.76,1,6.18,6.18,0,0,1-2.13.61c-4.37.47-7.88-1.78-11.38-4.17a4.54,4.54,0,0,0,.32-1.14,2.89,2.89,0,0,0-2.76-3.32,1.07,1.07,0,0,0-1.23.86c0,.25.07.45.31.48s.45-.13,1-.07a2,2,0,0,1,1.93,2.3,3.1,3.1,0,0,1-.11.51,41.43,41.43,0,0,0-5.35-3.3l-.28-.11c-7.89-4.34-15.45-2.44-14.94,1-2,.81-4,1.75-6.07,2.66a8.78,8.78,0,0,1-4-6.38c-.31-3,1.11-5.68,4.26-6,1.5-.16,2.89.78,3.15,3.28.09.85.74.78.74.78.77-.08,1.09-.78,1-1.63-.25-2.3-2.64-3.29-5.18-3-4.5.48-6.37,3.36-6,6.47a9.32,9.32,0,0,0,5.13,6.93,39,39,0,0,1-11.29,3.14c-3.08.32-6.72-.61-7.58-3.2A.69.69,0,0,0,77.7,23a1.76,1.76,0,0,0-1.42,2c.17,1.58,2.31,3.41,8.88,2.71a41.4,41.4,0,0,0,12.76-4,15.81,15.81,0,0,0,8,1.09c4-.43,7.72-2.3,9.2-6a11.86,11.86,0,0,1,2.81.87,63.19,63.19,0,0,1,6.4,3.74l-.2.33A21.57,21.57,0,0,0,118.52,22c-3.53-.44-5.79.79-6,2.08-.13,1,1,2.08,3.87,2.44,3.79.48,6.42-.63,7.86-2.15,1.44.56,4.08,1.68,6.9,2.52a13.06,13.06,0,0,0,5.84.83,5.87,5.87,0,0,0,2.37-.72,5.92,5.92,0,0,0,2.37.72,12.88,12.88,0,0,0,5.27-.62,79.58,79.58,0,0,0,7.61-2.73c1.44,1.52,4.07,2.63,7.86,2.15,2.84-.36,4-1.41,3.87-2.44-.16-1.29-2.41-2.52-5.95-2.08a21.38,21.38,0,0,0-5.65,1.67,4.11,4.11,0,0,1-.24-.39,60.06,60.06,0,0,1,6.29-3.68,11.86,11.86,0,0,1,2.81-.87c1.48,3.69,5.17,5.56,9.21,6a15.77,15.77,0,0,0,8-1.09,41.4,41.4,0,0,0,12.76,4c6.57.7,8.71-1.13,8.88-2.71A1.76,1.76,0,0,0,201.12,23Zm-95.55,1.36a11.89,11.89,0,0,1-6.76-1.07c4.44-2.11,8.66-4.15,12.66-4.58a12.84,12.84,0,0,1,2-.06C112.22,22.12,109,23.94,105.57,24.31Zm11.27,1.86c-1.88-.24-2.7-1-2.6-1.81.13-1,1.76-1.94,4.58-1.58a22.14,22.14,0,0,1,5,1.39C122.53,25.55,120.17,26.58,116.84,26.17Zm7.87-2.26c.06-.08.11-.17.16-.25.67.41,1.35.82,2,1.21C126,24.5,125.24,24.15,124.71,23.91Zm14.7,2.22-.19-.16h0A3.18,3.18,0,0,1,138,23.37a3.37,3.37,0,0,1,1.42-2.93,4,4,0,0,1,1.43,3.11,3,3,0,0,1-1,2.23A3.46,3.46,0,0,1,139.41,26.13Zm20.73-3.35c2.82-.36,4.45.58,4.58,1.58.1.78-.72,1.57-2.6,1.81-3.33.41-5.69-.62-6.94-2A22.14,22.14,0,0,1,160.14,22.78Zm-8.62,2.32c.85-.48,1.7-1,2.53-1.5l.2.31C153.61,24.2,152.65,24.63,151.52,25.1Zm21.73-.79c-3.46-.37-6.65-2.19-7.95-5.71a13,13,0,0,1,2.06.06c4,.43,8.21,2.47,12.65,4.58A11.87,11.87,0,0,1,173.25,24.31Z"/><path class="cls-1" d="M139.41,19.56c2.44-3.14,10.93-8,14.4-5.76,1.22.8.51,2.63-1.78,2.18a13.59,13.59,0,0,0-8.3.92A22.73,22.73,0,0,0,139.41,19.56Z"/><path class="cls-1" d="M139.41,19.56c-2.44-3.14-10.93-8-14.4-5.76-1.22.8-.51,2.63,1.78,2.18a13.62,13.62,0,0,1,8.31.92A22.85,22.85,0,0,1,139.41,19.56Z"/><path class="cls-1" d="M139.66,0a3.08,3.08,0,0,0-2.9,3.23c0,1.78,2.9,11.83,2.9,11.83s2.9-10,2.9-11.83A3.08,3.08,0,0,0,139.66,0Zm8.65,3.53a3.07,3.07,0,0,0-4.18,1.18c-.95,1.5-3.86,11.55-3.86,11.55s7.82-7,8.77-8.45A3.08,3.08,0,0,0,148.31,3.53Zm-17.3,0a3.08,3.08,0,0,0-.73,4.28c.95,1.5,8.77,8.45,8.77,8.45s-2.91-10-3.86-11.55A3.07,3.07,0,0,0,131,3.53Z"/></g></g></svg>